<svg width="256" height="177" fill="none" xmlns="http://www.w3.org/2000/svg"><path d="M256 83.6C256 37.6 198.7 0 128 0S0 37.6 0 83.6v4.9c0 49 50 88.4 128 88.4 78.3 0 128-39.5 128-88.4v-4.9z" fill="#2D3277"/><path d="M251.4 83.6c0 43.3-55.1 78.6-122.9 78.6-67.7 0-122.9-35.3-122.9-78.6s55.2-78.5 123-78.5c67.7 0 122.8 35.2 122.8 78.5z" fill="#FFE600"/><path d="M87.7 58.9s-1.4 1.3-.6 2.4c2 2.4 7.8 3.8 14 2.4 3.5-.8 8.3-4.5 12.6-8 4.9-3.8 9.7-7.8 14.6-9.2 5-1.6 8.3-.8 10.5-.2a40 40 0 019.6 5.6c8.4 6.2 42.3 35.8 48.2 40.9 4.5-2.2 25.5-11 54-17.5-2.4-15-11.5-29-25.5-40.3-19.4 8-43.3 12.3-66.7 1 0 0-12.7-5.9-25.3-5.6-18.5.5-26.3 8.3-35 17L87.8 58.8z" fill="#fff"/><path d="M195.2 96c-.2-.3-39.8-34.7-48.6-41.4a25 25 0 00-11-5.4c-1.7-.3-3.8 0-5.4.5-4 1.1-9.7 4.9-14.6 8.7-5 4-9.7 7.8-14 8.6a21.3 21.3 0 01-15.3-2.5 7 7 0 01-2.7-3c-1-2.6 1.1-4.8 1.4-5l10.7-11.9 3.8-3.7c-3.5.5-6.7 1.3-10 2.1-4 1.1-7.8 2.2-11.5 2.2-1.6 0-10.2-1.4-11.8-2-10-2.6-18.6-5.3-31.5-11.2C19.4 43.6 8.9 57.8 5.9 73.7l7.3 1.9C48.2 83.4 58.9 91.4 61 93a11.7 11.7 0 0118 1 13 13 0 018.4-2.8c1.6 0 3.2.2 5.1.8 4 1.3 6 4 7 6.4 1.3-.5 3-1 4.8-1 2 0 3.8.5 6 1.3 6.4 2.7 7.5 9.1 7 14h1.3A13.9 13.9 0 01131 133c2.1 1 7.2 3.8 12 3.2 3.8-.5 5.2-1.6 5.7-2.4.3-.5.8-1 .3-1.6l-10-11s-1.6-1.6-1-2.2c.5-.5 1.6.3 2.4.8 5 4.3 11 10.5 11 10.5s.5.8 2.7 1.4c1.9.2 5.4 0 7.8-2 .5-.5 1.3-1 1.6-1.5 2.4-3.3-.3-6.5-.3-6.5L151.7 109s-1.6-1.6-1.1-2.1c.5-.6 1.6.2 2.4.8 3.8 3 8.9 8.3 13.7 13.1 1.1.8 5.4 3.5 11-.2 3.5-2.5 4.4-5.1 4-7.3-.2-2.7-2.3-4.8-2.3-4.8l-15.6-15.9s-1.6-1.3-1.1-2.1c.5-.6 1.6.2 2.4.8 5.1 4.3 18.6 16.6 18.6 16.6.2 0 4.8 3.5 10.7-.2 2.2-1.4 3.5-3.3 3.5-5.7.3-3.5-2.7-5.9-2.7-5.9z" fill="#fff"/><path d="M119.1 116.2c-2.4 0-5 1.3-5.4 1.3-.2 0 0-1 .3-1.6.3-.5 3.5-10.2-4.3-13.7-5.9-2.7-9.7.3-10.7 1.6-.3.3-.6.3-.6 0 0-1.6-.8-6.5-6.2-8-7.5-2.5-12 2.9-13.4 4.8-.5-4.3-4-7.6-8.6-7.6a8.5 8.5 0 00-8.6 8.6c0 4.9 3.7 8.7 8.6 8.7a8 8 0 005.9-2.5v.3c-.3 2.2-1 10 7 13 3.2 1.3 6 .2 8.3-1.4.8-.6.8-.3.8.2-.2 2 0 6.2 6.2 8.6 4.6 2 7.3 0 8.9-1.6.8-.8 1-.5 1 .6.3 5.6 5.2 10.2 10.8 10.2a10.8 10.8 0 000-21.5z" fill="#fff"/><path d="M196.8 92c-12-10.5-40-35-47.8-40.6a27.7 27.7 0 00-10-5.7c-1-.3-2.7-.8-4.8-.8-1.9 0-4 .3-6.2 1a54.1 54.1 0 00-14.5 9.2l-.3.3c-4.3 3.5-8.9 7-12.4 7.8-1.6.3-3 .5-4.5.5-3.8 0-7.3-1-8.6-2.7-.3-.2 0-.8.5-1.3L99 48.1c8.3-8.3 16-16.1 34.4-16.6h.8c11.3 0 22.6 5 24 5.6a75 75 0 0032.5 7.8 86 86 0 0035.7-8.6l-4.3-3.5c-11 4.8-21.2 7-31.4 7a69 69 0 01-30.4-7.3c-.6-.2-13-6.1-26.1-6.1h-1c-15.4.2-24 5.6-29.7 10.4-5.6 0-10.5 1.7-14.8 2.7-3.7 1.1-7.2 2-10.4 2h-4c-3.8 0-22.7-4.7-37.5-10.6l-4.5 3.3A193.7 193.7 0 0072.9 46c1.6 0 3.5.3 5.4.3 4 0 7.8-1.1 11.8-2.2 2.4-.5 4.8-1.3 7.2-1.9l-2.1 2.2-10.8 11.8c-.8.8-2.7 3.2-1.6 6 .6 1 1.6 2 3 3.1a24.4 24.4 0 0016.1 2.5c4.6-1.1 9.4-4.9 14.3-9 4-3.1 9.6-7.2 14-8.5 1.3-.3 2.6-.6 4-.6h1c3 .3 5.7 1.4 10.8 5.2 8.9 6.7 48.4 41.1 48.7 41.4 0 0 2.4 2.1 2.4 5.9 0 1.9-1.3 3.8-3.2 5a9.5 9.5 0 01-5.1 1.7c-2.7 0-4.6-1.3-4.6-1.3l-18.6-16.7c-.8-.8-1.6-1.4-2.4-1.4-.5 0-.8.3-1 .6-.9 1 0 2.4 1 3.2l15.9 15.9s1.9 1.9 2.1 4.3a7 7 0 01-3.7 6.4 9.5 9.5 0 01-5.7 2c-2.4 0-4-1.2-4.5-1.4l-2.5-2.2c-4-4-8.3-8.3-11.5-10.7-.8-.6-1.6-1.4-2.4-1.4-.3 0-.8 0-1.1.6-.3.2-.6 1 .3 2.4.2.5.8.8.8.8l11.5 12.9s2.4 3 .3 5.4l-.5.5-1.1 1a9.3 9.3 0 01-5.7 2h-1.6c-1-.3-1.9-.6-2.4-1.1-.5-.8-6.5-6.5-11.3-10.5-.5-.5-1.3-1-2.2-1a2 2 0 00-1 .5c-.8 1 .5 2.7 1 3.2l10 10.7-.3.9c-.2.5-1.6 1.6-5 2.1h-1.4c-3.8 0-7.6-1.9-9.7-3a14.5 14.5 0 00-13.2-20.7h-.5c.3-3.7-.3-10.7-7.5-13.7A17 17 0 00104 98c-1.6 0-3 .3-4.6.8-1.6-3-4-5.1-7.3-6.2-1.8-.5-3.5-.8-5.3-.8-3 0-5.7.8-8.1 2.7a12.4 12.4 0 00-18.3-1c-3-2.5-15-10-47.6-17.6-1.6-.2-5.1-1.3-7.3-2.1L4.8 79l7.3 1.6c33 7.2 44.1 15 46 16.4-.6 1.6-.8 3.2-.8 4.8 0 7 5.6 12.4 12.3 12.4.9 0 1.7 0 2.5-.3 1 5.1 4.3 8.9 9.4 10.8 1.6.5 3 .8 4.3.8.8 0 1.9 0 3-.3.7 2.4 2.9 5.4 7.7 7.3a10.5 10.5 0 008.6.2c2.2 5.4 7.6 9.2 13.5 9.2 4 0 7.8-1.6 10.5-4.6 2.4 1.4 7.2 3.8 12.3 3.8h2c5-.6 7.2-2.7 8.3-4 .2-.3.2-.6.5-.9a12.5 12.5 0 0012.1-2.4c2.7-1.9 4.6-4.6 4.6-7a14.6 14.6 0 0011-2.4 12 12 0 006-10.5c.7.3 1.8.3 2.6.3a14 14 0 007.8-2.4 11.3 11.3 0 003.8-15.6c8.6-3.8 28-10.8 51-16.2 0-1.8-.2-3.5-.7-5.3-27.7 5.9-48.5 14.7-53.6 17.2zm-77.7 44.9a10 10 0 01-10-9.7c0-.5 0-1.6-1-1.6-.5 0-.8.2-1.3.5-1.1 1-2.7 2.2-4.9 2.2-1 0-2.1-.3-3.2-.8-5.7-2.5-6-6.2-5.7-7.8 0-.6 0-.8-.2-1.1l-.3-.3h-.3c-.2 0-.5 0-1 .6a8.7 8.7 0 01-4.9 1.6c-.8 0-1.9-.3-2.7-.6-7.5-3-7-10-6.4-12 0-.6 0-.9-.3-1.1l-.5-.6-.6.6a8.5 8.5 0 01-5.3 2.1 7.8 7.8 0 010-15.6 8 8 0 017.8 6.7l.2 2.2 1.1-1.9c0-.3 3.2-5.1 9.1-4.8 1.1 0 2.2.2 3.5.5 4.6 1.3 5.4 5.6 5.4 7.3 0 1 .8 1 .8 1 .3 0 .8-.2.8-.5a8 8 0 015.7-2.4c1.3 0 2.7.2 4.3 1 7.2 3.3 4 12.4 4 12.7-.5 1.6-.8 2.1 0 2.7h.5c.3 0 .9 0 1.4-.3 1-.3 2.4-.8 3.8-.8 5.3 0 10 4.6 10 10 .2 5.9-4.4 10.2-9.8 10.2z" fill="#2D3277"/></svg>