<?xml version="1.0" standalone="no"?>
<!DOCTYPE svg PUBLIC "-//W3C//DTD SVG 20010904//EN"
 "http://www.w3.org/TR/2001/REC-SVG-20010904/DTD/svg10.dtd">
<svg version="1.0" xmlns="http://www.w3.org/2000/svg"
 width="1001.000000pt" height="1001.000000pt" viewBox="0 0 1001.000000 1001.000000"
 preserveAspectRatio="xMidYMid meet">
<metadata>
Created by potrace 1.11, written by Peter Selinger 2001-2013
</metadata>
<g transform="translate(0.000000,1001.000000) scale(0.100000,-0.100000)"
fill="#000000" stroke="none">
<path d="M4689 8466 c-2 -2 -65 -7 -139 -10 -74 -4 -151 -9 -170 -11 -19 -2
-64 -6 -100 -9 -36 -3 -83 -8 -105 -11 -22 -3 -60 -7 -85 -9 -45 -5 -98 -12
-155 -21 -16 -3 -48 -7 -70 -10 -220 -32 -528 -96 -749 -157 -59 -16 -115 -31
-125 -33 -75 -17 -506 -165 -598 -206 -23 -11 -44 -19 -47 -19 -3 0 -31 -12
-63 -26 -32 -14 -67 -29 -78 -34 -11 -5 -99 -47 -195 -94 -704 -342 -1246
-791 -1608 -1332 -150 -226 -279 -519 -340 -779 -51 -213 -59 -314 -56 -645 2
-162 6 -308 8 -325 3 -16 8 -57 12 -90 3 -33 8 -63 10 -66 1 -3 6 -27 10 -54
3 -27 21 -107 40 -179 19 -72 36 -140 39 -151 3 -11 14 -45 26 -75 11 -30 30
-80 41 -110 11 -30 52 -120 90 -199 360 -749 1071 -1366 2033 -1766 232 -96
701 -248 862 -279 10 -2 36 -9 58 -14 32 -9 198 -44 265 -57 82 -16 194 -35
230 -40 25 -3 52 -8 60 -10 8 -2 40 -6 71 -10 31 -3 65 -7 75 -9 11 -2 46 -7
79 -10 33 -4 71 -9 85 -11 14 -2 61 -6 105 -10 44 -3 96 -8 115 -10 169 -20
983 -28 1205 -12 141 10 230 17 280 23 22 2 67 6 100 9 33 3 71 8 85 10 47 7
105 15 150 20 41 5 195 29 245 39 11 2 40 7 65 11 211 32 644 145 907 235 81
28 153 52 158 54 6 2 21 8 35 13 14 6 70 29 125 51 316 126 655 309 929 500
66 47 123 88 126 91 3 4 36 30 74 60 200 155 412 366 565 561 28 36 58 74 67
85 60 75 199 301 266 430 157 304 265 690 293 1050 7 90 7 488 0 550 -2 22 -7
66 -10 98 -3 31 -14 101 -25 155 -11 53 -23 108 -26 122 -2 14 -20 74 -40 134
-85 266 -220 521 -405 766 -118 156 -152 194 -304 345 -148 148 -214 206 -360
320 -422 329 -961 609 -1546 805 -141 47 -395 122 -489 145 -105 25 -172 40
-316 69 -93 19 -187 38 -209 41 -23 3 -52 8 -65 10 -14 3 -41 7 -60 10 -19 2
-66 9 -105 14 -38 6 -92 13 -120 16 -27 3 -66 8 -85 10 -52 7 -125 14 -215 21
-44 3 -100 8 -125 10 -57 5 -796 14 -801 10z"/>
</g>
</svg>
